<svg xmlns="http://www.w3.org/2000/svg" width="18" height="18" viewBox="0 0 18 18">
    <path fill="#757575" fill-rule="nonzero" d="M16.982 17.246l-5.349-5.836a6.703 6.703 0 0 0 1.868-4.66 6.703 6.703 0 0 0-1.977-4.773A6.709 6.709 0 0 0 6.75 0a6.703 6.703 0 0 0-4.773 1.977A6.709 6.709 0 0 0 .001 6.75c0 1.803.702 3.498 1.977 4.773A6.709 6.709 0 0 0 6.751 13.5a6.697 6.697 0 0 0 4.22-1.48l5.348 5.834a.447.447 0 0 0 .636.028.45.45 0 0 0 .028-.635v-.001zM.9 6.75A5.857 5.857 0 0 1 6.75.9a5.857 5.857 0 0 1 5.85 5.85 5.857 5.857 0 0 1-5.85 5.85A5.857 5.857 0 0 1 .9 6.75z"/>
</svg>
