<svg xmlns="http://www.w3.org/2000/svg" width="17" height="18" viewBox="0 0 17 18">
    <g fill="#757575" fill-rule="nonzero">
        <path d="M7 18c-1.103 0-2-.897-2-2s.897-2 2-2 2 .897 2 2-.897 2-2 2zm0-3c-.551 0-1 .449-1 1 0 .551.449 1 1 1 .551 0 1-.449 1-1 0-.551-.449-1-1-1zM14 18c-1.103 0-2-.897-2-2s.897-2 2-2 2 .897 2 2-.897 2-2 2zm0-3c-.551 0-1 .449-1 1 0 .551.449 1 1 1 .551 0 1-.449 1-1 0-.551-.449-1-1-1zM16.539 2.467A1.351 1.351 0 0 0 15.5 2H3.257l-.099-.596A1.718 1.718 0 0 0 1.5 0h-1a.5.5 0 0 0 0 1h1c.307 0 .621.266.671.569l1.671 10.027A1.718 1.718 0 0 0 5.5 13h10a.5.5 0 0 0 0-1h-10a.724.724 0 0 1-.671-.569l-.247-1.48 9.965-.867c.775-.067 1.483-.721 1.611-1.489l.671-4.027a1.354 1.354 0 0 0-.289-1.102l-.001.001zm-.697.937l-.671 4.027c-.053.316-.391.629-.711.657l-10.043.873-.994-5.962h12.076a.35.35 0 0 1 .276.113.355.355 0 0 1 .066.291l.001.001z"/>
    </g>
</svg>
