<svg xmlns="http://www.w3.org/2000/svg" width="17" height="18" viewBox="0 0 17 18">
    <path fill="#757575" fill-rule="nonzero" d="M13.6 17.143c-1.505 0-3.107-.43-4.76-1.279-1.524-.783-3.03-1.903-4.354-3.24-1.324-1.337-2.433-2.857-3.208-4.395C.438 6.561.01 4.947.01 3.43c0-.984.91-1.935 1.3-2.298C1.873.61 2.757 0 3.399 0c.32 0 .694.21 1.18.663.36.338.768.796 1.175 1.324.245.319 1.47 1.946 1.47 2.727 0 .64-.718 1.086-1.478 1.557a8.45 8.45 0 0 0-.817.548c-.234.189-.276.29-.283.312.807 2.028 3.273 4.514 5.283 5.327.018-.006.117-.046.308-.286a8.64 8.64 0 0 0 .544-.823c.467-.767.908-1.491 1.543-1.491.774 0 2.389 1.235 2.705 1.483.523.41.977.821 1.312 1.185.449.489.658.867.658 1.19 0 .647-.604 1.541-1.121 2.11-.36.396-1.303 1.318-2.279 1.318l.001-.001zM3.395.857c-.228.004-.84.286-1.507.904C1.255 2.35.862 2.988.862 3.43c0 5.767 7.024 12.857 12.738 12.857.436 0 1.07-.399 1.652-1.04.615-.675.894-1.296.898-1.527-.027-.162-.474-.796-1.697-1.746-1.052-.816-1.904-1.254-2.124-1.259-.015.005-.11.041-.303.288-.168.215-.347.51-.521.794-.476.78-.926 1.519-1.58 1.519a.818.818 0 0 1-.308-.061c-2.231-.9-4.87-3.56-5.762-5.81-.107-.27-.124-.694.403-1.176.28-.256.668-.496 1.043-.73.283-.174.575-.355.788-.525.244-.194.28-.29.285-.306-.006-.22-.44-1.08-1.248-2.14C4.183 1.332 3.555.882 3.393.854v.002z"/>
</svg>
