<svg xmlns="http://www.w3.org/2000/svg" width="17" height="18" viewBox="0 0 17 18">
    <g fill="#757575" fill-rule="nonzero">
        <path d="M8.5 9.9c-2.714 0-4.921-2.22-4.921-4.95S5.786 0 8.5 0c2.714 0 4.921 2.22 4.921 4.95S11.214 9.9 8.5 9.9zm0-9C6.28.9 4.474 2.717 4.474 4.95 4.474 7.183 6.28 9 8.5 9c2.22 0 4.026-1.817 4.026-4.05C12.526 2.717 10.72.9 8.5.9zM15.658 18H1.342C.602 18 0 17.394 0 16.65c0-.061.013-1.516 1.096-2.97.63-.846 1.494-1.518 2.567-1.997C4.973 11.097 6.6 10.8 8.5 10.8s3.527.297 4.837.883c1.073.48 1.936 1.151 2.567 1.997C16.987 15.134 17 16.589 17 16.65c0 .744-.602 1.35-1.342 1.35zM8.5 11.7c-3.12 0-5.422.858-6.658 2.48-.926 1.216-.946 2.46-.947 2.472 0 .246.2.448.447.448h14.316a.449.449 0 0 0 .447-.45c0-.01-.02-1.254-.947-2.47-1.237-1.622-3.539-2.48-6.658-2.48z"/>
    </g>
</svg>
