<svg xmlns="http://www.w3.org/2000/svg" width="22" height="16" viewBox="0 0 22 16">
    <path fill="#000" fill-rule="nonzero" d="M8.729 10.95L8.728 4.56l5.944 3.207-5.944 3.185zM21.78 3.452s-.215-1.567-.875-2.257C20.07.287 19.131.283 18.701.23 15.623 0 11.005 0 11.005 0h-.01S6.377 0 3.3.23c-.43.053-1.368.057-2.205.964C.434 1.884.22 3.45.22 3.45S0 5.293 0 7.133V8.86c0 1.841.22 3.682.22 3.682s.214 1.567.874 2.258c.837.906 1.936.878 2.426.972C5.28 15.946 11 16 11 16s4.623-.007 7.701-.237c.43-.054 1.368-.058 2.204-.964.66-.69.875-2.258.875-2.258S22 10.7 22 8.859V7.133c0-1.84-.22-3.682-.22-3.682z"/>
</svg>
